<svg width="24" height="24" viewBox="0 0 24 24" fill="none" xmlns="http://www.w3.org/2000/svg">
<path d="M7.20811 3.6261H6.24974C5.74139 3.6261 5.25386 3.82804 4.89441 4.1875C4.53495 4.54695 4.33301 5.03448 4.33301 5.54283V18.96C4.33301 19.4683 4.53495 19.9558 4.89441 20.3153C5.25386 20.6748 5.74139 20.8767 6.24974 20.8767H17.7501C18.2585 20.8767 18.746 20.6748 19.1055 20.3153C19.4649 19.9558 19.6669 19.4683 19.6669 18.96V8.25309C19.6668 7.74479 19.4648 7.25734 19.1053 6.89796L16.395 4.1877C16.0356 3.82822 15.5482 3.62621 15.0399 3.6261H11.0416" stroke="#732E76" stroke-width="0.718775" stroke-linecap="round" stroke-linejoin="round"/>
<path d="M19.6678 8.41793H15.8343C15.5802 8.41793 15.3364 8.31696 15.1567 8.13723C14.9769 7.9575 14.876 7.71374 14.876 7.45957V3.6261" stroke="#732E76" stroke-width="0.718775" stroke-linecap="round" stroke-linejoin="round"/>
<path d="M10.0831 2.66772H8.16637C7.9122 2.66772 7.66844 2.7687 7.48871 2.94842C7.30898 3.12815 7.20801 3.37192 7.20801 3.62609V8.41793L9.12474 7.45956L11.0415 8.41793V3.62609C11.0415 3.37192 10.9405 3.12815 10.7608 2.94842C10.581 2.7687 10.3373 2.66772 10.0831 2.66772V2.66772Z" stroke="#732E76" stroke-width="0.718775" stroke-linecap="round" stroke-linejoin="round"/>
<path d="M7.20801 12.2513H15.8333" stroke="#732E76" stroke-width="0.718775" stroke-linecap="round" stroke-linejoin="round"/>
<path d="M7.20801 15.6056H15.8333" stroke="#732E76" stroke-width="0.718775" stroke-linecap="round" stroke-linejoin="round"/>
</svg>
