<svg width="24" height="24" viewBox="0 0 24 24" fill="none" xmlns="http://www.w3.org/2000/svg">
<path d="M10.1713 8.5703C10.5757 8.97469 10.8029 9.52316 10.8029 10.0951C10.8029 10.667 10.5757 11.2154 10.1713 11.6198C9.76694 12.0242 9.21847 12.2514 8.64657 12.2514C8.07468 12.2514 7.5262 12.0242 7.12181 11.6198C6.71742 11.2154 6.49023 10.667 6.49023 10.0951C6.49023 9.81188 6.54601 9.53148 6.65438 9.26986C6.76274 9.00825 6.92158 8.77053 7.12181 8.5703C7.32205 8.37006 7.55976 8.21123 7.82138 8.10286C8.083 7.9945 8.3634 7.93872 8.64657 7.93872C9.21847 7.93872 9.76694 8.16591 10.1713 8.5703" stroke="#732E76" stroke-width="0.718775" stroke-linecap="round" stroke-linejoin="round"/>
<path d="M2.41699 18.4807V6.06125C2.41699 4.98117 3.29294 4.10522 4.37302 4.10522H19.6676C20.1759 4.10522 20.6635 4.30717 21.0229 4.66662C21.3824 5.02608 21.5843 5.51361 21.5843 6.02196V18.4807C21.5843 18.9891 21.3824 19.4766 21.0229 19.8361C20.6635 20.1955 20.1759 20.3975 19.6676 20.3975H4.33373C3.82538 20.3975 3.33785 20.1955 2.97839 19.8361C2.61893 19.4766 2.41699 18.9891 2.41699 18.4807Z" stroke="#732E76" stroke-width="0.718775" stroke-linecap="round" stroke-linejoin="round"/>
<path d="M14.876 9.85547H18.7094" stroke="#732E76" stroke-width="0.718775" stroke-linecap="round" stroke-linejoin="round"/>
<path d="M17.1761 13.689H14.876" stroke="#732E76" stroke-width="0.718775" stroke-linecap="round" stroke-linejoin="round"/>
<path d="M12.0918 16.564C11.8668 15.9983 11.4771 15.5131 10.9732 15.1714C10.4693 14.8297 9.87444 14.6471 9.26561 14.6472H8.0274C7.2607 14.6472 6.52276 14.9366 5.9602 15.458C5.62795 15.7655 5.36862 16.1434 5.20117 16.564" stroke="#732E76" stroke-width="0.718775" stroke-linecap="round" stroke-linejoin="round"/>
</svg>
