<svg width="18" height="13" viewBox="0 0 18 13" fill="none" xmlns="http://www.w3.org/2000/svg">
<path d="M13.9884 11.4776H11.1234V10.3316H13.9884C15.5681 10.3316 16.8534 9.04642 16.8534 7.46663C16.8534 5.88685 15.5681 4.60167 13.9884 4.60167H0.80957V3.45569H13.9884C16.2001 3.45569 17.9994 5.25538 17.9994 7.46663C17.9994 9.67775 16.2001 11.4776 13.9884 11.4776Z" fill="white"/>
<path d="M2.29197 6.32059L0 4.02862L2.29197 1.73665C2.51538 1.51324 2.87867 1.51324 3.10222 1.73665C3.32562 1.96005 3.32562 2.32335 3.10222 2.54689L1.62036 4.02862L3.10222 5.51034C3.32562 5.73389 3.32562 6.09718 3.10222 6.32059C2.87867 6.544 2.51538 6.544 2.29197 6.32059Z" fill="white"/>
<path d="M8.83252 10.3315H9.97851V11.4775H8.83252V10.3315Z" fill="white"/>
<path d="M6.54004 10.3315H7.68603V11.4775H6.54004V10.3315Z" fill="white"/>
</svg>
