<svg width="24" height="24" viewBox="0 0 24 24" fill="none" xmlns="http://www.w3.org/2000/svg">
<g clip-path="url(#clip0_1565_502)">
<path d="M12.0414 0.902828L12.0414 0.90293L12.0469 0.902828C15.017 0.848104 17.8336 1.94681 19.979 3.99888L20.0827 3.89048L19.979 3.99888C22.1276 6.05388 23.3478 8.82018 23.4159 11.7892L23.4161 11.8012L23.4159 11.8132C23.3478 14.7823 22.1276 17.5486 19.979 19.6036C17.8849 21.6065 15.1516 22.7013 12.2597 22.7015C12.1868 22.7015 12.1143 22.7008 12.041 22.6994L12.041 22.6994H12.0382H12.0216C10.699 22.6994 9.39794 22.4787 8.15125 22.0431L8.08341 22.0194L8.02242 22.0574L5.78363 23.4532L5.78361 23.4532C5.62646 23.5512 5.44824 23.6017 5.26694 23.6017C5.20022 23.6017 5.1329 23.5949 5.0659 23.581C4.617 23.4877 4.28779 23.0802 4.28779 22.6101V19.8299V19.7628L4.2378 19.7181C1.98529 17.7031 0.688174 14.8283 0.672461 11.8043V11.7966L0.672597 11.7892C0.6726 11.7891 0.672602 11.789 0.672605 11.7889C0.740699 8.81997 1.96095 6.05381 4.10942 3.99888C6.25488 1.94697 9.07025 0.847758 12.0414 0.902828ZM8.34909 20.9994L8.34912 20.9994C9.52907 21.4314 10.7648 21.6505 12.0216 21.6505H12.0217H12.0217H12.0218H12.0218H12.0218H12.0219H12.0219H12.022H12.022H12.022H12.0221H12.0221H12.0222H12.0222H12.0223H12.0223H12.0223H12.0224H12.0224H12.0225H12.0225H12.0225H12.0226H12.0226H12.0227H12.0227H12.0227H12.0228H12.0228H12.0229H12.0229H12.023H12.023H12.023H12.0231H12.0231H12.0232H12.0232H12.0232H12.0233H12.0233H12.0234H12.0234H12.0234H12.0235H12.0235H12.0236H12.0236H12.0237H12.0237H12.0237H12.0238H12.0238H12.0239H12.0239H12.0239H12.024H12.024H12.0241H12.0241H12.0241H12.0242H12.0242H12.0243H12.0243H12.0244H12.0244H12.0244H12.0245H12.0245H12.0246H12.0246H12.0246H12.0247H12.0247H12.0248H12.0248H12.0248H12.0249H12.0249H12.025H12.025H12.0251H12.0251H12.0251H12.0252H12.0252H12.0253H12.0253H12.0253H12.0254H12.0254H12.0255H12.0255H12.0255H12.0256H12.0256H12.0257H12.0257H12.0258H12.0258H12.0258H12.0259H12.0259H12.026H12.026H12.026H12.0261H12.0261H12.0262H12.0262H12.0262H12.0263H12.0263H12.0264H12.0264H12.0265H12.0265H12.0265H12.0266H12.0266H12.0267H12.0267H12.0267H12.0268H12.0268H12.0269H12.0269H12.027H12.027H12.027H12.0271H12.0271H12.0272H12.0272H12.0272H12.0273H12.0273H12.0274H12.0274H12.0274H12.0275H12.0275H12.0276H12.0276H12.0277H12.0277H12.0277H12.0278H12.0278H12.0279H12.0279H12.0279H12.028H12.028H12.0281H12.0281H12.0281H12.0282H12.0282H12.0283H12.0283H12.0284H12.0284H12.0284H12.0285H12.0285H12.0286H12.0286H12.0286H12.0287H12.0287H12.0288H12.0288H12.0289H12.0289H12.0289H12.029H12.029H12.0291H12.0291H12.0291H12.0292H12.0292H12.0293H12.0293H12.0293H12.0294H12.0294H12.0295H12.0295H12.0296H12.0296H12.0296H12.0297H12.0297H12.0298H12.0298H12.0298H12.0299H12.0299H12.03H12.03H12.0301H12.0301H12.0301H12.0302H12.0302H12.0303H12.0303H12.0303H12.0304H12.0304H12.0305H12.0305H12.0305H12.0306H12.0306H12.0307H12.0307H12.0308H12.0308H12.0308H12.0309H12.0309H12.031H12.031H12.031H12.0311H12.0311H12.0312H12.0312H12.0313H12.0313H12.0313H12.0314H12.0314H12.0315H12.0315H12.0315H12.0316H12.0316H12.0317H12.0317H12.0317H12.0318H12.0318H12.0319H12.0319H12.032H12.032H12.032H12.0321H12.0321H12.0322H12.0322H12.0322H12.0323H12.0323H12.0324H12.0324H12.0325H12.0325H12.0325H12.0326H12.0326H12.0327H12.0327H12.0327H12.0328H12.0328H12.0329H12.0329H12.033H12.033H12.033H12.0331H12.0331H12.0332H12.0332H12.0332H12.0333H12.0333H12.0334H12.0334H12.0334H12.0335H12.0335H12.0336H12.0336H12.0337H12.0337H12.0337H12.0338H12.0338H12.0339H12.0339H12.0339H12.034H12.034H12.0341H12.0341H12.0342H12.0342H12.0342H12.0343H12.0343H12.0344H12.0344H12.0344H12.0345H12.0345H12.0346H12.0346H12.0347H12.0347H12.0347H12.0348H12.0348H12.0349H12.0349H12.0349H12.035H12.035H12.0351H12.0351H12.0352H12.0352H12.0352H12.0353H12.0353H12.0354H12.0354H12.0354H12.0355H12.0355H12.0356H12.0356H12.0357H12.0357H12.0357H12.0358H12.0358H12.0359H12.0359H12.0359H12.036H12.036H12.0361H12.0361H12.0362H12.0362H12.0362H12.0363H12.0363H12.0364H12.0364H12.0364H12.0365H12.0365H12.0366H12.0366H12.0367H12.0367H12.0367H12.0368H12.0368H12.0369H12.0369H12.0369H12.037H12.037H12.0371H12.0371H12.0372H12.0372H12.0372H12.0373H12.0373H12.0374H12.0374H12.0374H12.0375H12.0375H12.0376H12.0376H12.0377H12.0377H12.0377H12.0378H12.0378H12.0379H12.0379H12.0379H12.038H12.038H12.0381H12.0381H12.0382H12.0382H12.0382H12.0383H12.0383H12.0384H12.0384H12.0385H12.0385H12.0385H12.0386H12.0386H12.0387H12.0387H12.0387H12.0388H12.0388H12.0389H12.0389H12.039H12.039H12.039H12.0391H12.0391H12.0392H12.0392H12.0392H12.0393H12.0393H12.0394H12.0394H12.0395H12.0395H12.0395H12.0396H12.0396H12.0397H12.0397H12.0398H12.0398H12.0398H12.0399H12.0399H12.04H12.04H12.04H12.0401H12.0401H12.0402H12.0402H12.0403H12.0403H12.0403H12.0404H12.0404H12.0405H12.0405H12.0405H12.0406H12.0406H12.0407H12.0407H12.0408H12.0408H12.0408H12.0409H12.0409H12.041H12.041H12.0411H12.0411H12.0411H12.0412H12.0412H12.0413H12.0413H12.0413H12.0414H12.0414H12.0415H12.0415H12.0416H12.0416H12.0416H12.0417H12.0417H12.0418H12.0418H12.0419H12.0419H12.0419H12.042H12.042H12.0421H12.0421H12.0421H12.0422H12.0422H12.0423H12.0423H12.0424H12.0424H12.0424H12.0425H12.0425H12.0426H12.0426H12.0427H12.0427H12.0427H12.0428H12.0428H12.0429H12.0429L12.0546 21.6506C12.0549 21.6506 12.0551 21.6506 12.0554 21.6506C14.7489 21.7026 17.3055 20.7073 19.2512 18.8464L19.1475 18.738L19.2512 18.8464C21.1931 16.9889 22.2987 14.4882 22.364 11.805L22.3642 11.8051L22.364 11.7977C22.2985 9.11439 21.1931 6.61368 19.2512 4.75618C17.3053 2.89496 14.7502 1.8991 12.0546 1.95199L12.0536 1.95201L12.0441 1.95226L12.0347 1.95201L12.0337 1.95199C9.34078 1.90016 6.78303 2.89492 4.83727 4.75619C2.89353 6.6151 1.78796 9.11796 1.72425 11.8036L1.72418 11.8036L1.72421 11.8081C1.74118 14.5815 2.95302 17.2148 5.04995 19.0342C5.23415 19.194 5.33936 19.4243 5.33936 19.6656V22.2229V22.4932L5.56872 22.3502L7.61479 21.0745C7.83575 20.9367 8.10285 20.9092 8.34909 20.9994Z" fill="#732E76" stroke="#FFF3EF" stroke-width="0.3"/>
<path d="M12.5738 7.9899L12.5739 7.98985C13.1007 7.58317 13.6972 7.37815 14.3507 7.37815C15.2211 7.37815 16.02 7.72588 16.6031 8.35704C17.1732 8.97441 17.4904 9.81665 17.4904 10.7324C17.4904 11.7154 17.1148 12.5322 16.4619 13.3385C15.8051 14.1498 14.8769 14.94 13.7816 15.8715C13.4242 16.1754 13.0184 16.5205 12.593 16.892L12.593 16.892C12.4414 17.0244 12.2465 17.0975 12.0442 17.0975C11.842 17.0975 11.6472 17.0244 11.4954 16.8917L11.4953 16.8916C11.0732 16.5234 10.6659 16.1768 10.3072 15.8717L10.3072 15.8717C9.21185 14.9401 8.28357 14.1498 7.62675 13.3385C6.97391 12.5322 6.59824 11.7154 6.59824 10.7324C6.59824 9.81678 6.91529 8.97438 7.48538 8.3572L7.48538 8.3572C8.06851 7.72588 8.86743 7.37815 9.73794 7.37815C10.3913 7.37815 10.9878 7.58317 11.5148 7.98987L11.5148 7.9899C11.6627 8.10392 11.8026 8.23228 11.9341 8.37446L12.0442 8.49348L12.1543 8.37453C12.2858 8.23247 12.426 8.10392 12.5738 7.9899ZM11.9461 15.8921L12.0442 15.977L12.1424 15.8922C12.4786 15.6014 12.7971 15.3304 13.0856 15.085L13.0993 15.0733L13.0993 15.0733L13.1082 15.0657C14.1255 14.2006 14.9547 13.4954 15.528 12.8264C16.1061 12.1519 16.4389 11.4975 16.4389 10.7324C16.4389 9.41598 15.5711 8.42708 14.3507 8.42708C13.9302 8.42708 13.5576 8.55682 13.2175 8.8193L13.2174 8.81933C12.907 9.05913 12.6909 9.36395 12.565 9.57417L12.565 9.57429C12.4564 9.75608 12.2564 9.86937 12.0442 9.86937C11.8321 9.86937 11.6323 9.7561 11.5237 9.57442L11.5237 9.5744C11.3978 9.36395 11.1817 9.05913 10.8712 8.81933L10.8712 8.8193C10.531 8.55682 10.1583 8.42708 9.73794 8.42708C8.51752 8.42708 7.64981 9.41598 7.64981 10.7324C7.64981 11.4975 7.98261 12.1519 8.56069 12.8264C9.13397 13.4954 9.96321 14.2006 10.9806 15.0659L10.9895 15.0735L10.9895 15.0735L11.0019 15.084C11.2916 15.3304 11.6114 15.6024 11.9461 15.8921Z" fill="#732E76" stroke="#FFF3EF" stroke-width="0.3"/>
</g>
<defs>
<clipPath id="clip0_1565_502">
<rect width="23.0008" height="23.0008" fill="white" transform="translate(0.5 0.750977)"/>
</clipPath>
</defs>
</svg>
